<?xml version="1.0" encoding="UTF-8"?>
<svg id="Layer_2" data-name="Layer 2" xmlns="http://www.w3.org/2000/svg" viewBox="0 0 51.77 23">
  <defs>
    <style>
      .cls-1 {
        font-family: Oswald-SemiBold, Oswald;
        font-size: 18.44px;
        font-weight: 600;
      }

      .cls-1, .cls-2 {
        fill: #fff;
      }

      .cls-2 {
        stroke-width: 0px;
      }
    </style>
  </defs>
  <g id="Layer_1-2" data-name="Layer 1">
    <g>
      <path class="cls-2" d="m5.8,16.7H.06v-.54h2.55v-1.81H.06v-.54h5.75v.54h-2.79v1.81h2.79v.54Z"/>
      <path class="cls-2" d="m5.8,12.81H.06v-2.08h.42v1.53h2.16v-1.25h.4v1.25h2.37v-1.55h.4v2.09Z"/>
      <path class="cls-2" d="m5.8,9.98H.06v-.54h5.34v-1.63h.4v2.17Z"/>
      <path class="cls-2" d="m5.8,7.27H.06v-.54h5.34v-1.63h.4v2.17Z"/>
      <path class="cls-2" d="m5.87,3.22c0,.38-.07.68-.22.9-.15.22-.36.37-.62.45-.27.09-.57.13-.92.13H1.72c-.35,0-.65-.05-.91-.14-.26-.09-.46-.25-.6-.46s-.21-.51-.21-.88.07-.66.21-.88c.14-.22.34-.37.6-.46.26-.09.56-.13.91-.13h2.39c.35,0,.65.04.91.13.26.09.47.24.62.45.15.21.23.51.23.89Zm-.43,0c0-.25-.05-.44-.15-.57s-.24-.22-.43-.27c-.18-.05-.39-.07-.63-.07H1.62c-.24,0-.45.02-.63.07-.18.05-.32.14-.42.27-.1.13-.15.32-.15.57s.05.45.15.59c.1.13.24.23.42.28.18.05.39.07.63.07h2.6c.24,0,.45-.02.63-.07.18-.05.32-.14.43-.28s.15-.33.15-.59Z"/>
    </g>
    <text class="cls-1" transform="translate(6.73 16.69)"><tspan x="0" y="0">LEEDS</tspan></text>
  </g>
</svg>