<?xml version="1.0" encoding="UTF-8"?>
<svg id="Layer_2" data-name="Layer 2" xmlns="http://www.w3.org/2000/svg" viewBox="0 0 129 41">
  <defs>
    <style>
      .cls-1 {
        fill: none;
        stroke: #fff;
      }

      .cls-1, .cls-2 {
        stroke-miterlimit: 10;
      }

      .cls-2 {
        stroke: #0b4c84;
      }

      .cls-2, .cls-3, .cls-4 {
        fill: #fff;
      }

      .cls-2, .cls-4 {
        fill-rule: evenodd;
      }

      .cls-3, .cls-4 {
        stroke-width: 0px;
      }
    </style>
  </defs>
  <g id="Badges">
    <g>
      <rect class="cls-1" x=".5" y=".5" width="128" height="40" rx="4" ry="4"/>
      <path class="cls-2" d="m10.27,20.1v-10.52c0-.57.5-1.11,1.03-1.11.48,0,.71.14.95.27l19.3,10.55c.41.23.62.52.62.82,0,.3-.2.59-.62.82l-19.3,10.55c-.24.12-.47.26-.95.26-.54,0-1.03-.54-1.03-1.11v-10.53Z"/>
      <path class="cls-2" d="m22.81,20.17l-11.68-11.68c.06-.01.12-.02.18-.02.48,0,.71.14.95.27l14.22,7.77-3.67,3.67Z"/>
      <path class="cls-2" d="m26.39,23.75l-3.58-3.58,3.67-3.67,5.08,2.78c.41.23.62.52.62.82,0,.3-.2.59-.62.82l-5.17,2.83Z"/>
      <path class="cls-2" d="m11.25,31.73h.01s11.55-11.56,11.55-11.56l3.58,3.58-14.13,7.72c-.24.12-.47.26-.95.26-.02,0-.04,0-.06,0Z"/>
      <path class="cls-4" d="m71.61,34.36c-.47-.42-.87-1.06-1.11-1.52l1.61-.69c.1.2.25.5.49.76.41.45.97.76,1.64.76.63,0,1.33-.29,1.7-.8.33-.46.46-1.05.46-1.68v-.63c-1.15,1.48-3.67,1.27-5.07-.26-1.5-1.64-1.49-4.29.03-5.93,1.5-1.49,3.73-1.68,5.04-.27,0,0,0,0,0,0v-.71h1.75v7.59c0,1.93-.71,3.02-1.59,3.66-.64.47-1.55.68-2.34.68-1.03,0-1.92-.36-2.61-.97h0Zm41.85.42h0l1.69-3.99-2.98-6.92h1.7l2.13,4.93,2.08-4.93h1.7l-4.61,10.92h-1.7Zm-8.07-3.81h0c-.48-.46-.74-1.19-.75-1.85,0-.58.19-1.17.62-1.63.68-.73,1.71-1.05,2.79-1.05.71,0,1.33.14,1.8.41,0-1.22-.95-1.69-1.76-1.69-.75,0-1.41.39-1.66,1.08l-1.53-.62c.27-.74,1.13-2,3.15-2,.99,0,1.96.35,2.6,1.02.64.68.85,1.52.85,2.64v4.19h-1.67v-.75c-.22.27-.56.55-.91.72-.43.21-.93.28-1.39.28-.76,0-1.6-.25-2.14-.77h0Zm-53.28-3.61h0c0-2,1.52-4.2,4.16-4.2s4.16,2.2,4.16,4.2-1.52,4.2-4.16,4.2-4.16-2.2-4.16-4.2h0Zm9.03,0h0c0-2,1.52-4.2,4.16-4.2s4.16,2.2,4.16,4.2-1.52,4.2-4.16,4.2-4.16-2.2-4.16-4.2h0Zm-20.3,2.21h0c-2.52-2.54-2.44-6.61.07-9.15,1.27-1.27,2.93-1.91,4.59-1.9,1.59,0,3.18.6,4.42,1.77l-1.25,1.3c-1.81-1.75-4.68-1.73-6.44.09-1.79,1.85-1.83,4.83-.04,6.68,1.8,1.85,4.78,1.96,6.58.11.61-.63.82-1.43.94-2.24h-4.22v-1.78h5.93c.08.45.1.91.1,1.36,0,1.47-.63,3.02-1.62,4.03-1.12,1.15-2.69,1.74-4.34,1.73-1.71-.01-3.44-.69-4.73-1.98h0Zm42.23.75h0c-1.48-1.64-1.48-4.32,0-5.95,1.48-1.64,4.01-1.63,5.45,0,.47.53.79,1.22,1.07,1.93l-5.55,2.34c.32.65.96,1.28,1.97,1.28.86,0,1.45-.29,2.07-1.17l1.45.98h0c-.17.22-.37.44-.53.61-1.48,1.64-4.46,1.64-5.94,0h0Zm10.42,1.17h0v-11.06h3.56c2.14,0,3.76,1.5,3.76,3.35s-1.54,3.35-3.43,3.35h-2.2v4.36h-1.69Zm8.42,0h0v-11.06h1.69v11.06h-1.69Zm-22.58-.18h0v-12.37h1.85v12.37h-1.85Zm30.51-3.06h0c-.41-.28-1.04-.4-1.59-.4-1.2,0-1.88.61-1.88,1.27,0,.74.71,1.11,1.37,1.11.96,0,2.1-.8,2.1-1.97h0Zm-51.25-.89h0c0-1.21-.85-2.53-2.32-2.53s-2.32,1.33-2.32,2.53.85,2.53,2.32,2.53,2.32-1.33,2.32-2.53h0Zm9.03,0h0c0-1.21-.85-2.53-2.32-2.53s-2.32,1.33-2.32,2.53.85,2.53,2.32,2.53,2.32-1.33,2.32-2.53h0Zm8.82.76h0c.02-.05.05-.18.07-.3,0-.02,0-.04,0-.04.02-.14.04-.29.03-.44,0-.14-.01-.28-.04-.42,0-.03,0-.05,0-.05-.02-.13-.05-.25-.09-.37-.31-.98-1.15-1.67-2.13-1.66-1.24,0-2.25,1.15-2.24,2.55,0,1.39,1.03,2.52,2.27,2.51.98,0,1.81-.72,2.13-1.76h0Zm7.32-.91h0l3.7-1.57c-.38-.66-1-.87-1.53-.87-1.41,0-2.37,1.6-2.17,2.44h0Zm15.33-3.39h0c0-.97-.76-1.75-1.89-1.75h-2.03v3.5h2.12c1,0,1.79-.78,1.79-1.75Z"/>
      <polygon class="cls-4" points="114.75 32.76 114.75 32.75 114.75 32.75 114.75 32.75 114.75 32.74 114.75 32.74 114.75 32.74 114.75 32.74 114.75 32.74 114.74 32.74 114.74 32.75 114.75 32.76 114.75 32.76"/>
      <path class="cls-4" d="m114.77,32.76h0s0-.01,0-.01h0s0,0,0,0h0v.02h0s0,0,0,0h0s0,0,0,0h0Zm0-.01h0s0,0,0,0h0s0,0,0,0c0,0,0,0,0,0h0Z"/>
      <polygon class="cls-4" points="114.78 32.75 114.77 32.75 114.77 32.75 114.78 32.75 114.78 32.75 114.77 32.75 114.77 32.74 114.78 32.74 114.78 32.74 114.77 32.74 114.77 32.76 114.78 32.76 114.78 32.75"/>
      <path class="cls-4" d="m114.8,32.76v-.02h0v.02s0,0,0,0h0s0,0,0,0h0s0,0,0,0h0Zm0,0h0,0s0,0,0,0h0Z"/>
      <polygon class="cls-4" points="114.81 32.74 114.8 32.74 114.8 32.74 114.8 32.74 114.8 32.76 114.8 32.76 114.8 32.74 114.81 32.74 114.81 32.74"/>
      <polygon class="cls-4" points="114.82 32.75 114.81 32.75 114.81 32.75 114.82 32.75 114.82 32.75 114.81 32.75 114.81 32.74 114.82 32.74 114.82 32.74 114.81 32.74 114.81 32.76 114.82 32.76 114.82 32.75"/>
      <path class="cls-4" d="m114.84,32.75h0s0-.01,0-.01h0v.02h0s0,0,0,0h0Zm0,0h0s0,0,0,0h0s0-.01,0-.01c0,0,0,0,0,0h0Z"/>
      <path class="cls-4" d="m114.86,32.75h0s0,0,0,0c0,0,0,0,0,0h0s0,0,0,0h0v.02h0s0,0,0,0h0Zm0,0h0s0,0,0,0h0s0,0,0,0c0,0,0,0,0,0h0Zm0,0h0s0,0,0,0h0s0,0,0,0c0,0,0,0,0,0h0Z"/>
      <polygon class="cls-4" points="114.87 32.74 114.87 32.74 114.87 32.75 114.87 32.75 114.87 32.75 114.86 32.74 114.86 32.74 114.86 32.75 114.86 32.76 114.87 32.76 114.87 32.75 114.87 32.74"/>
      <polygon class="cls-4" points="114.9 32.75 114.89 32.75 114.89 32.73 114.88 32.73 114.88 32.76 114.9 32.76 114.9 32.75"/>
      <path class="cls-4" d="m114.92,32.75v-.02s0,0,0,0c0,0,0,0,0,0v.02s0,0,0,0c0,0,0,0,0,0h0Zm0,0h0s0,0,0,0c0,0,0,0,0,0h0s0-.02,0-.02c0,0,0,0,0,0h0Z"/>
      <path class="cls-4" d="m114.94,32.76v-.02h0s0,0,0,0h0s0,0,0,0c0,0,0,0,0,0h0s0-.02,0-.02c0,0,0,0,0,0h0s0,0,0,0c0,0,0,0,0,0h0s0,.02,0,.02c0,0,0,0,0,0h0Z"/>
      <path class="cls-4" d="m114.96,32.75v-.02s0,0,0,0,0,0,0,0v.02s0,0,0,0,0,0,0,0h0Zm0,0h0s0,0,0,0,0,0,0,0h0s0-.02,0-.02,0,0,0,0h0Z"/>
      <polygon class="cls-4" points="115 32.76 115 32.73 115 32.73 114.99 32.75 114.98 32.73 114.98 32.73 114.98 32.76 114.98 32.76 114.98 32.74 114.98 32.74 114.99 32.76 114.99 32.76 115 32.74 115 32.74 115 32.76 115 32.76"/>
      <path class="cls-4" d="m115.03,32.76v-.03h-.01v.03s0,0,0,0h0s0,0,0,0h0s0,0,0,0h0Zm0-.01h0,0s0,0,0,0h0Z"/>
      <path class="cls-4" d="m115.05,32.75s0,0,0,0c0,0,0,0,0,0,0,0,0,0,0,0,0,0,0,0,0,0h0s0,0,0,0c0,0,0,0,0,0,0,0,0,0,0,0,0,0,0,0,0,0,0,0,0,0,0,0,0,0,0,0,0,0h0s0,0,0,0,0,0,0,0Z"/>
      <polygon class="cls-4" points="115.07 32.73 115.05 32.73 115.05 32.73 115.06 32.73 115.06 32.76 115.06 32.76 115.06 32.73 115.07 32.73 115.07 32.73"/>
      <polygon class="cls-4" points="115.09 32.75 115.07 32.75 115.07 32.74 115.09 32.74 115.09 32.74 115.07 32.74 115.07 32.73 115.09 32.73 115.09 32.73 115.07 32.73 115.07 32.76 115.09 32.76 115.09 32.75"/>
      <path class="cls-4" d="m115.11,32.76h0s0-.02,0-.02h0s0,0,0,0h0v.03h0s0-.01,0-.01h0s0,.01,0,.01h0Zm0-.02h0s0,0,0,0h0s0,0,0,0c0,0,0,0,0,0h0Z"/>
      <path class="cls-3" d="m39.42,10.56c0-1.77,1.31-2.9,2.95-2.9,1.09,0,1.81.52,2.26,1.16l-.8.46c-.3-.42-.83-.75-1.46-.75-1.11,0-1.94.84-1.94,2.03s.83,2.03,1.94,2.03c.57,0,1.08-.26,1.33-.51v-.87h-1.68v-.87h2.66v2.1c-.55.61-1.34,1.03-2.31,1.03-1.63,0-2.95-1.15-2.95-2.91Z"/>
      <path class="cls-3" d="m45.9,13.36v-5.62h3.85v.87h-2.86v1.45h2.8v.87h-2.8v1.57h2.86v.87h-3.85Z"/>
      <path class="cls-3" d="m52.47,13.36v-4.75h-1.7v-.87h4.39v.87h-1.7v4.75h-.99Z"/>
      <path class="cls-3" d="m58.58,13.36v-5.62h.98v5.62h-.98Z"/>
      <path class="cls-3" d="m62.31,13.36v-4.75h-1.7v-.87h4.39v.87h-1.7v4.75h-.99Z"/>
      <path class="cls-3" d="m68.17,10.56c0-1.68,1.19-2.9,2.87-2.9s2.87,1.23,2.87,2.9-1.2,2.9-2.87,2.9-2.87-1.23-2.87-2.9Zm4.73,0c0-1.16-.73-2.03-1.86-2.03s-1.86.87-1.86,2.03.72,2.03,1.86,2.03,1.86-.88,1.86-2.03Z"/>
      <path class="cls-3" d="m78.98,13.36l-2.93-4.02v4.02h-.98v-5.62h1.01l2.87,3.89v-3.89h.99v5.62h-.95Z"/>
    </g>
  </g>
</svg>