<?xml version="1.0" encoding="UTF-8"?>
<svg id="Layer_2" data-name="Layer 2" xmlns="http://www.w3.org/2000/svg" viewBox="0 0 129 41">
  <defs>
    <style>
      .cls-1 {
        fill: none;
        stroke: #fff;
        stroke-miterlimit: 10;
      }

      .cls-2 {
        fill: #fff;
        stroke-width: 0px;
      }
    </style>
  </defs>
  <g id="Badges">
    <g>
      <rect class="cls-1" x=".5" y=".5" width="128" height="40" rx="4" ry="4"/>
      <path class="cls-2" d="m27.48,20.25c-.03-3.13,2.56-4.65,2.68-4.72-1.47-2.14-3.74-2.43-4.53-2.45-1.91-.2-3.76,1.14-4.73,1.14s-2.49-1.12-4.1-1.09c-2.07.03-4.02,1.23-5.08,3.1-2.2,3.8-.56,9.39,1.55,12.47,1.05,1.51,2.28,3.19,3.89,3.13,1.58-.07,2.16-1,4.07-1s2.44,1,4.08.97c1.69-.03,2.76-1.51,3.77-3.03,1.22-1.73,1.71-3.43,1.72-3.51-.04-.01-3.28-1.25-3.32-5Z"/>
      <path class="cls-2" d="m24.38,11.06c.85-1.06,1.43-2.5,1.27-3.97-1.23.05-2.76.85-3.64,1.89-.78.91-1.48,2.41-1.3,3.82,1.38.1,2.79-.69,3.68-1.74Z"/>
      <path class="cls-2" d="m50.29,31.62h-2.2l-1.21-3.79h-4.19l-1.15,3.79h-2.14l4.15-12.9h2.57l4.17,12.9Zm-3.77-5.38l-1.09-3.37c-.12-.34-.33-1.16-.65-2.43h-.04c-.13.55-.33,1.36-.61,2.43l-1.07,3.37h3.47Z"/>
      <path class="cls-2" d="m60.97,26.85c0,1.58-.43,2.83-1.28,3.75-.77.82-1.72,1.23-2.85,1.23-1.23,0-2.11-.44-2.64-1.32h-.04v4.9h-2.07v-10.03c0-1-.03-2.02-.08-3.06h1.82l.11,1.47h.04c.69-1.11,1.74-1.67,3.14-1.67,1.1,0,2.01.43,2.75,1.3.73.87,1.1,2.01,1.1,3.43Zm-2.11.08c0-.91-.2-1.65-.61-2.24-.45-.61-1.05-.92-1.8-.92-.51,0-.97.17-1.39.51-.42.34-.69.78-.81,1.33-.06.26-.1.47-.1.63v1.55c0,.68.21,1.25.62,1.71s.95.7,1.62.7c.78,0,1.38-.3,1.82-.9.43-.6.65-1.39.65-2.38Z"/>
      <path class="cls-2" d="m71.67,26.85c0,1.58-.43,2.83-1.28,3.75-.77.82-1.72,1.23-2.85,1.23-1.23,0-2.11-.44-2.64-1.32h-.04v4.9h-2.07v-10.03c0-1-.03-2.02-.08-3.06h1.82l.11,1.47h.04c.69-1.11,1.73-1.67,3.14-1.67,1.1,0,2.01.43,2.75,1.3.73.87,1.1,2.01,1.1,3.43Zm-2.11.08c0-.91-.2-1.65-.61-2.24-.45-.61-1.05-.92-1.8-.92-.51,0-.97.17-1.39.51-.41.34-.69.78-.81,1.33-.06.26-.1.47-.1.63v1.55c0,.68.21,1.25.62,1.71.41.47.95.7,1.62.7.78,0,1.38-.3,1.82-.9.43-.6.65-1.39.65-2.38Z"/>
      <path class="cls-2" d="m83.64,28c0,1.1-.38,1.99-1.15,2.68-.84.75-2.01,1.13-3.52,1.13-1.39,0-2.5-.27-3.34-.8l.48-1.72c.91.55,1.9.82,2.99.82.78,0,1.38-.18,1.82-.53.43-.35.65-.82.65-1.41,0-.52-.18-.96-.54-1.32-.36-.36-.95-.69-1.78-1-2.26-.84-3.39-2.08-3.39-3.7,0-1.06.4-1.93,1.19-2.61.79-.68,1.84-1.02,3.16-1.02,1.17,0,2.15.2,2.93.61l-.52,1.69c-.73-.4-1.55-.59-2.47-.59-.73,0-1.3.18-1.7.54-.34.32-.52.71-.52,1.17,0,.51.2.93.59,1.26.34.31.97.64,1.88,1,1.11.45,1.93.97,2.45,1.57.52.6.78,1.35.78,2.24Z"/>
      <path class="cls-2" d="m90.47,23.86h-2.28v4.52c0,1.15.4,1.72,1.21,1.72.37,0,.68-.03.92-.1l.06,1.57c-.41.15-.94.23-1.61.23-.82,0-1.45-.25-1.91-.75-.46-.5-.69-1.33-.69-2.51v-4.69h-1.36v-1.55h1.36v-1.7l2.03-.61v2.32h2.28v1.55Z"/>
      <path class="cls-2" d="m100.75,26.89c0,1.43-.41,2.6-1.23,3.52-.86.95-1.99,1.42-3.41,1.42s-2.45-.45-3.26-1.36c-.81-.91-1.22-2.05-1.22-3.43s.42-2.62,1.25-3.54c.84-.92,1.96-1.38,3.38-1.38s2.46.45,3.29,1.36c.79.88,1.19,2.02,1.19,3.41Zm-2.15.07c0-.86-.18-1.59-.55-2.21-.43-.74-1.05-1.11-1.86-1.11s-1.46.37-1.9,1.11c-.37.61-.55,1.36-.55,2.25s.18,1.59.55,2.21c.45.74,1.07,1.11,1.88,1.11s1.41-.38,1.86-1.13c.38-.63.57-1.37.57-2.23Z"/>
      <path class="cls-2" d="m107.47,24.13c-.2-.04-.42-.06-.65-.06-.73,0-1.29.27-1.69.82-.34.48-.52,1.1-.52,1.84v4.88h-2.07l.02-6.38c0-1.07-.03-2.05-.08-2.93h1.8l.08,1.78h.06c.22-.61.56-1.1,1.03-1.47.46-.33.96-.5,1.49-.5.19,0,.36.01.52.04v1.97Z"/>
      <path class="cls-2" d="m116.72,26.52c0,.37-.02.68-.08.94h-6.2c.02.92.32,1.62.9,2.11.52.43,1.2.65,2.03.65.92,0,1.76-.15,2.51-.44l.32,1.44c-.88.38-1.92.57-3.12.57-1.44,0-2.58-.42-3.4-1.27-.82-.85-1.23-1.99-1.23-3.42s.38-2.57,1.15-3.5c.8-1,1.89-1.49,3.25-1.49s2.36.5,3.05,1.49c.55.79.82,1.77.82,2.93Zm-1.97-.54c.01-.61-.12-1.14-.4-1.59-.36-.57-.91-.86-1.65-.86-.68,0-1.23.28-1.65.84-.34.45-.55.98-.61,1.61h4.31Z"/>
      <path class="cls-2" d="m45.83,10.77c0,1.14-.34,2-1.03,2.58-.63.53-1.53.8-2.7.8-.58,0-1.07-.03-1.49-.08v-6.24c.54-.09,1.12-.13,1.75-.13,1.11,0,1.95.24,2.51.72.63.55.95,1.33.95,2.34Zm-1.07.03c0-.74-.2-1.31-.59-1.7-.39-.39-.96-.59-1.72-.59-.32,0-.59.02-.82.07v4.74c.12.02.35.03.69.03.78,0,1.38-.22,1.8-.65.42-.43.64-1.06.64-1.89Z"/>
      <path class="cls-2" d="m51.51,11.77c0,.7-.2,1.28-.6,1.73-.42.46-.98.7-1.67.7s-1.21-.22-1.6-.67c-.4-.45-.6-1.01-.6-1.68s.2-1.29.62-1.74c.41-.45.96-.68,1.66-.68s1.21.22,1.62.67c.39.43.58.99.58,1.67Zm-1.05.03c0-.42-.09-.78-.27-1.08-.21-.36-.52-.55-.91-.55s-.72.18-.93.55c-.18.3-.27.67-.27,1.1s.09.78.27,1.09c.22.36.53.55.92.55s.69-.19.91-.56c.19-.31.28-.67.28-1.09Z"/>
      <path class="cls-2" d="m59.13,9.52l-1.43,4.57h-.93l-.59-1.98c-.15-.5-.27-.99-.37-1.48h-.02c-.09.5-.21.99-.37,1.48l-.63,1.98h-.94l-1.34-4.57h1.04l.52,2.17c.12.51.23,1,.31,1.47h.02c.08-.38.2-.87.38-1.46l.65-2.18h.83l.62,2.14c.15.52.27,1.02.37,1.5h.03c.07-.47.17-.97.31-1.5l.55-2.14h1Z"/>
      <path class="cls-2" d="m64.4,14.09h-1.02v-2.62c0-.81-.31-1.21-.92-1.21-.3,0-.55.11-.73.33-.19.22-.28.48-.28.78v2.71h-1.02v-3.26c0-.4-.01-.84-.04-1.31h.89l.05.71h.03c.12-.22.29-.41.53-.55.28-.17.58-.26.92-.26.43,0,.78.14,1.06.41.35.34.53.84.53,1.51v2.74Z"/>
      <path class="cls-2" d="m67.2,14.09h-1.02v-6.67h1.02v6.67Z"/>
      <path class="cls-2" d="m73.18,11.77c0,.7-.2,1.28-.6,1.73-.42.46-.98.7-1.67.7s-1.21-.22-1.6-.67c-.4-.45-.6-1.01-.6-1.68s.2-1.29.62-1.74c.41-.45.96-.68,1.66-.68s1.21.22,1.62.67c.39.43.58.99.58,1.67Zm-1.06.03c0-.42-.09-.78-.27-1.08-.21-.36-.52-.55-.91-.55s-.72.18-.93.55c-.18.3-.27.67-.27,1.1s.09.78.27,1.09c.22.36.53.55.92.55s.69-.19.91-.56c.19-.31.28-.67.28-1.09Z"/>
      <path class="cls-2" d="m78.1,14.09h-.91l-.08-.53h-.03c-.31.42-.76.63-1.34.63-.43,0-.78-.14-1.04-.41-.24-.25-.36-.56-.36-.93,0-.56.23-.98.7-1.28.47-.29,1.12-.44,1.97-.43v-.08c0-.6-.32-.9-.95-.9-.45,0-.85.11-1.19.34l-.21-.67c.42-.26.95-.39,1.57-.39,1.19,0,1.79.63,1.79,1.89v1.68c0,.46.02.82.07,1.09Zm-1.06-1.57v-.71c-1.12-.02-1.68.29-1.68.92,0,.24.06.42.2.54.13.12.3.18.5.18.22,0,.43-.07.62-.21.19-.14.31-.32.35-.54.01-.05.02-.11.02-.18Z"/>
      <path class="cls-2" d="m83.88,14.09h-.9l-.05-.73h-.03c-.29.56-.78.84-1.47.84-.55,0-1.01-.22-1.37-.65-.36-.43-.55-.99-.55-1.68,0-.74.2-1.34.59-1.8.38-.43.85-.64,1.41-.64.61,0,1.04.21,1.29.62h.02v-2.62h1.02v5.44c0,.45.01.86.04,1.23Zm-1.05-1.93v-.76c0-.13,0-.24-.03-.32-.06-.24-.18-.45-.37-.62-.19-.17-.42-.25-.68-.25-.38,0-.68.15-.89.45-.22.3-.33.69-.33,1.16s.1.82.31,1.1c.22.3.52.45.89.45.33,0,.6-.13.8-.38.2-.23.29-.51.29-.84Z"/>
      <path class="cls-2" d="m92.57,11.77c0,.7-.2,1.28-.6,1.73-.42.46-.98.7-1.67.7s-1.2-.22-1.6-.67c-.4-.45-.6-1.01-.6-1.68s.2-1.29.62-1.74c.41-.45.96-.68,1.66-.68s1.21.22,1.62.67c.39.43.58.99.58,1.67Zm-1.05.03c0-.42-.09-.78-.27-1.08-.21-.36-.52-.55-.91-.55s-.72.18-.93.55c-.18.3-.27.67-.27,1.1s.09.78.27,1.09c.22.36.53.55.92.55s.69-.19.91-.56c.19-.31.28-.67.28-1.09Z"/>
      <path class="cls-2" d="m98.03,14.09h-1.02v-2.62c0-.81-.31-1.21-.92-1.21-.3,0-.55.11-.73.33-.19.22-.28.48-.28.78v2.71h-1.02v-3.26c0-.4-.01-.84-.04-1.31h.89l.05.71h.03c.12-.22.3-.41.53-.55.28-.17.58-.26.92-.26.43,0,.78.14,1.06.41.35.34.53.84.53,1.51v2.74Z"/>
      <path class="cls-2" d="m104.87,10.28h-1.12v2.22c0,.56.2.85.59.85.18,0,.33-.02.45-.05l.03.77c-.2.08-.46.11-.79.11-.4,0-.71-.12-.94-.37-.23-.24-.34-.66-.34-1.23v-2.3h-.67v-.76h.67v-.84l1-.3v1.14h1.12v.76Z"/>
      <path class="cls-2" d="m110.25,14.09h-1.02v-2.6c0-.82-.31-1.23-.92-1.23-.47,0-.79.24-.97.71-.03.1-.05.22-.05.37v2.75h-1.02v-6.67h1.02v2.76h.02c.32-.5.78-.75,1.37-.75.42,0,.77.14,1.05.41.34.34.52.86.52,1.53v2.72Z"/>
      <path class="cls-2" d="m115.8,11.59c0,.18-.01.34-.04.46h-3.05c.01.45.16.8.44,1.03.26.21.59.32,1,.32.45,0,.86-.07,1.23-.22l.16.71c-.43.19-.94.28-1.53.28-.71,0-1.27-.21-1.67-.63-.41-.42-.61-.98-.61-1.68s.19-1.26.56-1.72c.39-.49.93-.73,1.6-.73s1.16.24,1.49.73c.27.39.41.87.41,1.44Zm-.97-.26c0-.3-.06-.56-.2-.78-.18-.28-.45-.42-.81-.42-.33,0-.6.14-.81.41-.17.22-.27.48-.3.79h2.12Z"/>
    </g>
  </g>
</svg>