<svg xmlns="http://www.w3.org/2000/svg" width="43.063" height="50.221" viewBox="0 0 43.063 50.221">
  <path id="Icon_awesome-android" data-name="Icon awesome-android" d="M8.709,21.6V34.584A3.073,3.073,0,0,1,5.625,37.69,3.347,3.347,0,0,1,2.25,34.584V21.6a3.345,3.345,0,0,1,3.375-3.084A3.1,3.1,0,0,1,8.709,21.6ZM9.921,39.2a3.312,3.312,0,0,0,3.319,3.319h2.232l.034,6.852c0,4.138,6.19,4.1,6.19,0V42.523h4.172v6.852c0,4.116,6.224,4.127,6.224,0V42.523h2.265a3.307,3.307,0,0,0,3.3-3.319V19.086H9.921V39.2ZM37.732,18H9.8A12.6,12.6,0,0,1,16.929,6.851L14.788,2.892a.432.432,0,1,1,.751-.426l2.176,3.992a15.151,15.151,0,0,1,12.145,0l2.164-3.981a.432.432,0,1,1,.751.426L30.633,6.851A12.633,12.633,0,0,1,37.732,18ZM18.589,11.774A1.177,1.177,0,0,0,17.412,10.6a1.178,1.178,0,0,0,0,2.355A1.177,1.177,0,0,0,18.589,11.774Zm12.717,0a1.161,1.161,0,1,0-1.144,1.177A1.171,1.171,0,0,0,31.306,11.774Zm10.631,6.74A3.075,3.075,0,0,0,38.853,21.6V34.584a3.094,3.094,0,0,0,3.084,3.106,3.34,3.34,0,0,0,3.375-3.106V21.6A3.32,3.32,0,0,0,41.937,18.514Z" transform="translate(-2.25 -2.245)"/>
</svg>
