<svg xmlns="http://www.w3.org/2000/svg" width="44.489" height="44.489" viewBox="0 0 44.489 44.489">
  <path id="Icon_awesome-app-store" data-name="Icon awesome-app-store" d="M22.8,10.689l.816-1.408a1.832,1.832,0,1,1,3.175,1.83L18.941,24.7h5.678a2.512,2.512,0,0,1,2.072,3.66H10.052a1.83,1.83,0,0,1,0-3.66h4.664L20.69,14.349l-1.866-3.238A1.832,1.832,0,1,1,22,9.281l.8,1.408ZM15.739,30.243l-1.758,3.05a1.832,1.832,0,1,1-3.175-1.83l1.31-2.26a3.125,3.125,0,0,1,3.624,1.04Zm15.149-5.534h4.763a1.83,1.83,0,0,1,0,3.66H33.005l1.785,3.094a1.832,1.832,0,0,1-3.175,1.83q-4.507-7.817-6.763-11.714a5.053,5.053,0,0,1,.646-6.2q1.8,3.094,5.391,9.328ZM22.807.563A22.244,22.244,0,1,0,45.051,22.807,22.241,22.241,0,0,0,22.807.563ZM42.181,22.807A19.374,19.374,0,1,1,22.807,3.433,19.373,19.373,0,0,1,42.181,22.807Z" transform="translate(-0.563 -0.563)"/>
</svg>
